<?xml version="1.0" encoding="UTF-8"?>
<svg version="1.1" xmlns="http://www.w3.org/2000/svg" width="1000" height="250">
<path d="M0 0 C7.79814592 7.25408923 11.82945604 15.13748386 12.33691406 25.80932617 C12.5083028 37.63624804 10.05481528 46.12506409 1.8125 54.9375 C-8.17064899 64.10142112 -17.44598023 66.1046035 -30.66796875 65.80078125 C-41.34901836 65.28282175 -48.16944779 60.23936385 -55.3125 52.5 C-57.20993802 49.93157101 -58.79117696 47.30176993 -60.3125 44.5 C-60.9725 43.51 -61.6325 42.52 -62.3125 41.5 C-65.15854923 31.10732991 -64.23560528 19.02961214 -59.3125 9.5 C-57.78969854 6.90896469 -56.26486287 4.81200867 -54.3125 2.5 C-53.6525 2.5 -52.9925 2.5 -52.3125 2.5 C-52.3125 1.84 -52.3125 1.18 -52.3125 0.5 C-36.27020368 -12.55937501 -16.17093157 -12.87986258 0 0 Z " fill="#199A22" transform="translate(273.3125,90.5)"/>
<path d="M0 0 C0.495 1.485 0.495 1.485 1 3 C-1.31 3.33 -3.62 3.66 -6 4 C-5.87625 5.03125 -5.7525 6.0625 -5.625 7.125 C-6.03013942 11.31144068 -6.1274242 11.49196756 -9.0625 14 C-10.72958854 15.40013192 -10.72958854 15.40013192 -12 17 C-12.14404524 21.17731206 -11.70759954 23.13261992 -9.0625 26.375 C-7.09868733 28.03492866 -7.09868733 28.03492866 -5 29 C-5 32.3 -5 35.6 -5 39 C-7.51083114 37.74458443 -7.87125446 36.49936512 -9 34 C-9.99 34 -10.98 34 -12 34 C-12.33 37.63 -12.66 41.26 -13 45 C-13.99 45 -14.98 45 -16 45 C-18.18777466 46.9375006 -18.18777466 46.9375006 -20 49 C-26.22070845 47.08593586 -26.22070845 47.08593586 -28.3203125 44.16015625 C-32.55090051 35.74598677 -33.38802062 27.49596116 -30.5 18.4375 C-27.98737583 12.12004494 -23.83590839 6.38065132 -17.9921875 2.75390625 C-15.32748831 1.74550048 -12.84373667 1.97854517 -10.03125 2.0625 C-6.46206548 1.95267894 -3.51307688 0 0 0 Z " fill="#169A1F" transform="translate(249,90)"/>
<path d="M0 0 C1.32 0 2.64 0 4 0 C3.42864595 3.49668676 2.29922618 4.96921677 -0.3125 7.3125 C-6.58001056 13.30974829 -9.05911379 19.23848856 -9.34350586 27.88916016 C-9.48748111 38.11028699 -7.80903502 44.97620501 -0.875 52.8125 C6.27460666 59.31494399 14.21326728 61.85300068 23.796875 61.41015625 C34.52820825 60.03602211 41.94111985 55.29101957 48.66796875 46.92578125 C53.53163297 39.11939582 53.31729224 28.87168579 52 20 C50.99431931 17.2048519 49.95825953 15.15493442 48.19140625 12.7890625 C46.72727966 10.59047241 46.51078103 8.56678197 46 6 C45.34 5.67 44.68 5.34 44 5 C43.505 3.515 43.505 3.515 43 2 C49.51530898 3.57266079 51.64655976 5.42949495 55.3671875 11.07421875 C60.30352651 19.95684008 60.4047852 30.11655568 59 40 C55.86277316 50.73501986 48.40217583 58.25531698 39.0546875 63.9921875 C33.54897191 66.6927096 28.82138993 67.29079288 22.75 66.875 C21.99855713 66.82496826 21.24711426 66.77493652 20.47290039 66.72338867 C9.85434703 65.84127418 1.3158328 61.75348169 -5.9453125 53.89453125 C-12.03587663 46.49156523 -14.56977714 39.69817352 -14.4375 30.125 C-14.42775146 29.33416016 -14.41800293 28.54332031 -14.40795898 27.72851562 C-14.03127627 15.29670917 -8.62142579 8.62142579 0 0 Z " fill="#23922C" transform="translate(226,89)"/>
<path d="M0 0 C0.639375 0.556875 1.27875 1.11375 1.9375 1.6875 C1.6075 2.3475 1.2775 3.0075 0.9375 3.6875 C-0.7125 2.6975 -2.3625 1.7075 -4.0625 0.6875 C-4.0625 1.3475 -4.0625 2.0075 -4.0625 2.6875 C-3.4025 3.0175 -2.7425 3.3475 -2.0625 3.6875 C-1.0230998 5.6673099 -0.0336225 7.67332 0.9375 9.6875 C1.36804688 10.25855469 1.79859375 10.82960938 2.2421875 11.41796875 C7.64466209 19.06384381 7.12461545 28.73054203 5.9375 37.6875 C3.73711386 45.64572476 -1.53306611 51.99640116 -8.59375 56.19140625 C-16.76575446 60.40960267 -23.81402864 61.7538426 -33.0625 60.6875 C-42.67904064 57.47433606 -49.75032831 51.91612861 -55 43.3125 C-58.63872131 35.48264424 -58.54962648 24.4602869 -56.125 16.25 C-54.07960558 11.8514091 -50.46096654 8.42844743 -47.12109375 4.984375 C-45.27425291 2.92376321 -44.13470899 1.21443579 -43.0625 -1.3125 C-49.85644657 0.95608738 -53.67779948 5.97427551 -57.46484375 11.87109375 C-61.56521223 20.29071159 -61.54254702 31.55944016 -59.3671875 40.56640625 C-58.44335535 42.79835366 -57.40495828 44.68215083 -56.0625 46.6875 C-55.62679687 47.37972656 -55.19109375 48.07195312 -54.7421875 48.78515625 C-49.37569488 56.62961951 -42.39236498 61.69673263 -33.0625 63.6875 C-29.40035159 64.17135899 -25.75050569 64.48758941 -22.0625 64.6875 C-22.0625 65.0175 -22.0625 65.3475 -22.0625 65.6875 C-33.67132372 66.34254334 -41.41528486 65.08893815 -50.375 57.4375 C-54.45204072 53.55887099 -57.39096249 49.60758159 -60.0625 44.6875 C-60.7225 43.6975 -61.3825 42.7075 -62.0625 41.6875 C-64.90854923 31.29482991 -63.98560528 19.21711214 -59.0625 9.6875 C-57.53969854 7.09646469 -56.01486287 4.99950867 -54.0625 2.6875 C-53.4025 2.6875 -52.7425 2.6875 -52.0625 2.6875 C-52.0625 2.0275 -52.0625 1.3675 -52.0625 0.6875 C-35.87233268 -12.49225072 -16.44056626 -12.41430514 0 0 Z M-40.0625 1.6875 C-41.073125 2.265 -42.08375 2.8425 -43.125 3.4375 C-50.87405942 9.37294977 -54.97999535 16.49657623 -56.4453125 26.23046875 C-56.84675092 34.64729426 -54.16323373 42.51984803 -48.875 49.0625 C-42.26269499 55.98764525 -34.81250842 58.76059725 -25.375 59 C-16.31893311 58.88888261 -9.40289994 55.87975399 -2.8203125 49.68359375 C3.33356865 42.69551982 5.28416057 35.45242267 5.1484375 26.3046875 C4.42274966 17.30078278 -0.02402322 10.61682876 -6.375 4.4375 C-16.39993782 -2.09036648 -29.21648354 -4.77395661 -40.0625 1.6875 Z " fill="#2C9C34" transform="translate(273.0625,90.3125)"/>
<path d="M0 0 C2.64 0 5.28 0 8 0 C8.33 0.66 8.66 1.32 9 2 C9.99 1.34 10.98 0.68 12 0 C16.34660356 -0.27064779 20.64080016 -0.08632079 25 0 C26.32 4.62 27.64 9.24 29 14 C31.00993705 10.98509443 31.72623341 8.7850073 32.625 5.3125 C32.88539063 4.31863281 33.14578125 3.32476562 33.4140625 2.30078125 C33.60742188 1.54152344 33.80078125 0.78226562 34 0 C36.64 0 39.28 0 42 0 C40.14482627 6.65679984 38.00213856 13.21798333 35.75 19.75 C35.48695068 20.56573486 35.22390137 21.38146973 34.95288086 22.22192383 C32.92026795 27.97501259 30.25121413 31.75336501 25 35 C21.5625 35.875 21.5625 35.875 19 36 C16 32.25 16 32.25 16 30 C18.64 28.68 21.28 27.36 24 26 C23.50104522 18.84831485 20.68436185 12.58708719 18 6 C17.34 6.66 16.68 7.32 16 8 C13.69 8.66 11.38 9.32 9 10 C8.67 15.28 8.34 20.56 8 26 C5.36 26 2.72 26 0 26 C0 17.42 0 8.84 0 0 Z " fill="#FCFCFC" transform="translate(332,109)"/>
<path d="M0 0 C1.67542976 0.28604898 3.34385343 0.61781233 5 1 C5 2.65 5 4.3 5 6 C5.78375 6.28875 6.5675 6.5775 7.375 6.875 C10 8 10 8 12 10 C12.125 12.625 12.125 12.625 12 15 C10.68 15.33 9.36 15.66 8 16 C7.67 15.01 7.34 14.02 7 13 C6.34 13 5.68 13 5 13 C5.13360104 17.07850567 5.13360104 17.07850567 6 21 C8.83333333 23.25 8.83333333 23.25 12 25 C14.19850726 27.78477587 14.93470975 29.47767798 15.375 33 C14.94007896 36.47936834 14.19749944 38.27206966 12 41 C11.13375 41.309375 10.2675 41.61875 9.375 41.9375 C8.59125 42.288125 7.8075 42.63875 7 43 C6.10169161 46.05272465 6.10169161 46.05272465 6 49 C4.35 49 2.7 49 1 49 C0.79375 48.071875 0.5875 47.14375 0.375 46.1875 C-1.36844572 42.14587582 -3.06885421 41.71987628 -7 40 C-9.4294516 36.3558226 -9.16179575 34.28758728 -9 30 C-7.68 29.67 -6.36 29.34 -5 29 C-4.01 30.65 -3.02 32.3 -2 34 C-1.505 29.545 -1.505 29.545 -1 25 C-1.763125 24.773125 -2.52625 24.54625 -3.3125 24.3125 C-6.63427637 22.69023712 -7.51824437 21.35344696 -9 18 C-9.5625 15.5625 -9.5625 15.5625 -9 13 C-7.23282209 10.71942178 -5.30551898 8.73809851 -3 7 C-2.34 7 -1.68 7 -1 7 C-1.020625 6.030625 -1.04125 5.06125 -1.0625 4.0625 C-1 1 -1 1 0 0 Z " fill="#F4FBF3" transform="translate(245,94)"/>
<path d="M0 0 C2.49605741 1.97963174 2.96415463 2.89246389 4 6 C4.53550042 11.98318742 4.49180719 16.88699662 1 22 C-0.9857424 24.29124123 -2.23765245 24.94064768 -5.2578125 25.17578125 C-7.51419608 25.1863912 -9.74769013 25.12994095 -12 25 C-11.91621094 25.63808594 -11.83242188 26.27617187 -11.74609375 26.93359375 C-11.64425781 27.75988281 -11.54242188 28.58617187 -11.4375 29.4375 C-11.33308594 30.26121094 -11.22867187 31.08492187 -11.12109375 31.93359375 C-11.08113281 32.61550781 -11.04117187 33.29742187 -11 34 C-11.495 34.495 -11.495 34.495 -12 35 C-14.64 35 -17.28 35 -20 35 C-20 23.12 -20 11.24 -20 -1 C-17.03 -1 -14.06 -1 -11 -1 C-10.67 -0.67 -10.34 -0.34 -10 0 C-9.46375 -0.37125 -8.9275 -0.7425 -8.375 -1.125 C-4.98168206 -2.37516977 -3.23679536 -1.44622771 0 0 Z M-12 7 C-12.36498034 9.89608399 -12.36498034 9.89608399 -12.1875 13.125 C-12.16042969 14.22070312 -12.13335937 15.31640625 -12.10546875 16.4453125 C-12.07066406 17.28835937 -12.03585937 18.13140625 -12 19 C-8.87425691 19.96693737 -8.87425691 19.96693737 -5.75 19.125 C-3.31970124 16.17392293 -3.60202737 13.87835804 -3.6640625 10.15625 C-3.89075624 7.70886301 -3.89075624 7.70886301 -6 5 C-9.18490007 4.7226499 -9.18490007 4.7226499 -12 7 Z " fill="#FDFDFD" transform="translate(397,110)"/>
<path d="M0 0 C0.94746094 -0.01417969 1.89492188 -0.02835937 2.87109375 -0.04296875 C5.60751644 0.19135482 7.22678123 0.79048617 9.5625 2.1875 C9.2325 4.4975 8.9025 6.8075 8.5625 9.1875 C7.881875 9.0225 7.20125 8.8575 6.5 8.6875 C0.32909185 7.50404488 0.32909185 7.50404488 -5.3125 9.5 C-7.82219321 13.26453982 -7.73502696 16.79897732 -7.4375 21.1875 C-6.56191886 24.60670069 -6.56191886 24.60670069 -4.4375 27.1875 C0.4239683 28.58984663 4.63284718 28.09294644 9.5625 27.1875 C9.2325 29.8275 8.9025 32.4675 8.5625 35.1875 C5.40240467 36.24086511 3.0071864 36.38782888 -0.3125 36.4375 C-1.85550781 36.47617188 -1.85550781 36.47617188 -3.4296875 36.515625 C-7.95053957 36.02244114 -10.50524059 34.14639539 -13.625 30.9375 C-17.33599033 25.30703191 -17.82537029 20.15168567 -16.98046875 13.62109375 C-15.94585347 8.98393316 -13.92564272 5.54035702 -10.375 2.3125 C-6.87819804 0.28209886 -3.96473346 0.02689778 0 0 Z " fill="#FDFDFD" transform="translate(318.4375,98.8125)"/>
<path d="M0 0 C2.70552388 2.19823815 4.44778333 3.89556667 6 7 C6.5350086 12.36762727 6.66175234 16.69931437 4.1875 21.5625 C1.77049846 24.25573029 0.11417487 25.83615075 -3.5234375 26.37109375 C-11.27422176 26.55159147 -11.27422176 26.55159147 -15.125 23.625 C-18.88945446 18.35476375 -18.59614453 13.3423154 -18 7 C-16.31934168 3.38969694 -15.10294522 1.72479257 -11.8125 -0.4375 C-7.70760665 -1.25847867 -4.03653348 -1.15538458 0 0 Z M-10 7 C-10.09879565 8.810285 -10.12971514 10.62452727 -10.125 12.4375 C-10.12757813 13.42621094 -10.13015625 14.41492188 -10.1328125 15.43359375 C-10.17228415 17.98909076 -10.17228415 17.98909076 -9 20 C-7.02 20 -5.04 20 -3 20 C-1.75622607 17.51245214 -1.86693765 15.77344699 -1.875 13 C-1.87242187 12.113125 -1.86984375 11.22625 -1.8671875 10.3125 C-1.84872098 7.97323034 -1.84872098 7.97323034 -3 6 C-6.80621045 5.56152641 -6.80621045 5.56152641 -10 7 Z " fill="#FDFDFD" transform="translate(442,109)"/>
<path d="M0 0 C2.64 0 5.28 0 8 0 C8 1.98 8 3.96 8 6 C8.70125 4.989375 9.4025 3.97875 10.125 2.9375 C11.49609375 1.27734375 11.49609375 1.27734375 13 0 C16.1875 0 16.1875 0 19 1 C21 3 21 3 21.01171875 5.21484375 C20.90472656 6.11332031 20.79773438 7.01179688 20.6875 7.9375 C20.52314453 9.40123047 20.52314453 9.40123047 20.35546875 10.89453125 C20.23816406 11.91933594 20.12085938 12.94414063 20 14 C19.75299344 16.96039202 19.51614645 19.92143942 19.28125 22.8828125 C19 25 19 25 18 26 C15.32941149 26.14115161 12.67567762 26.04247107 10 26 C10.3110685 23.93728361 10.62391516 21.87483534 10.9375 19.8125 C11.11152344 18.66394531 11.28554688 17.51539062 11.46484375 16.33203125 C11.91379313 13.53674788 12.42082162 10.77066414 13 8 C12.34 8 11.68 8 11 8 C10.731875 8.53625 10.46375 9.0725 10.1875 9.625 C9.32047283 11.35905434 8.39525169 13.06435702 7.4375 14.75 C5.71796884 18.63763567 5.36371538 21.78090164 5 26 C2.36 26 -0.28 26 -3 26 C-2.69083423 22.79133632 -2.37706711 19.58313829 -2.0625 16.375 C-1.97548828 15.47136719 -1.88847656 14.56773438 -1.79882812 13.63671875 C-1.34748614 9.05643346 -0.8352958 4.5301628 0 0 Z " fill="#FCFCFC" transform="translate(501,109)"/>
<path d="M0 0 C2.05078125 0.03255208 4.1015625 0.06510417 6.15234375 0.09765625 C5.60323623 9.92478739 3.97092149 19.44432535 2.15234375 29.09765625 C6.11234375 29.09765625 10.07234375 29.09765625 14.15234375 29.09765625 C13.16234375 32.56265625 13.16234375 32.56265625 12.15234375 36.09765625 C5.88234375 36.09765625 -0.38765625 36.09765625 -6.84765625 36.09765625 C-6.36917555 31.76424618 -5.88989529 27.43092704 -5.41015625 23.09765625 C-5.27544922 21.87691406 -5.14074219 20.65617187 -5.00195312 19.3984375 C-4.62141957 15.96435419 -4.23526884 12.53094661 -3.84765625 9.09765625 C-3.75339355 8.23140625 -3.65913086 7.36515625 -3.56201172 6.47265625 C-2.84085093 0.15015068 -2.84085093 0.15015068 0 0 Z " fill="#FDFDFD" transform="translate(458.84765625,98.90234375)"/>
<path d="M0 0 C2 2 2 2 2.5625 5.25 C1.86715171 9.88565525 0.49634511 11.02908147 -3.109375 13.77734375 C-5.31738842 15.20525326 -7.48221988 16.23703633 -10 17 C-9.67 17.66 -9.34 18.32 -9 19 C-8.2575 18.67 -7.515 18.34 -6.75 18 C-4 17 -4 17 0 17 C0.33 18.32 0.66 19.64 1 21 C-4.89071038 25.80874317 -4.89071038 25.80874317 -9.625 26.625 C-13 26 -13 26 -15.9375 24.1875 C-18.98048698 19.48470194 -18.937052 15.44709091 -18 10 C-16.3079129 5.44552767 -13.97003539 2.12167865 -9.5625 -0.0625 C-5.81344745 -1.04909278 -3.68865093 -1.11517354 0 0 Z M-8 5 C-8.99 6.485 -8.99 6.485 -10 8 C-9.67 8.99 -9.34 9.98 -9 11 C-6.94009522 9.70532323 -6.94009522 9.70532323 -5 8 C-5 7.01 -5 6.02 -5 5 C-5.99 5 -6.98 5 -8 5 Z " fill="#FDFDFD" transform="translate(493,109)"/>
<path d="M0 0 C0 1.98 0 3.96 0 6 C1.98 6 3.96 6 6 6 C6 7.98 6 9.96 6 12 C4.02 12 2.04 12 0 12 C0 16.29 0 20.58 0 25 C1.98 24.67 3.96 24.34 6 24 C6.1875 26.875 6.1875 26.875 6 30 C2.2794164 32.48038907 0.40203429 32.46337203 -4 32 C-6.20703125 30.4921875 -6.20703125 30.4921875 -8 28 C-8.2906124 25.10550051 -8.38186045 22.62050065 -8.25 19.75 C-8.23195313 19.00492188 -8.21390625 18.25984375 -8.1953125 17.4921875 C-8.14835649 15.66090299 -8.07661652 13.83028351 -8 12 C-9.32 12 -10.64 12 -12 12 C-11.67 10.02 -11.34 8.04 -11 6 C-10.01 6 -9.02 6 -8 6 C-8 4.68 -8 3.36 -8 2 C-5.09399739 0.74335022 -3.20395416 0 0 0 Z " fill="#FDFDFD" transform="translate(415,103)"/>
<path d="M0 0 C0.69609375 0.4125 1.3921875 0.825 2.109375 1.25 C8.47435725 5.46141683 11.64986842 11.29973683 15 18 C16.23892703 29.64277757 15.82227689 39.53743698 8.4609375 48.97265625 C2.71566286 55.38503624 -5.28299837 59.37271788 -13.8125 60.30859375 C-24.1843204 60.72804237 -32.21448356 57.77244043 -39.9375 50.75 C-47.27380766 42.44271045 -48.86731019 34.7268006 -48.33984375 23.92578125 C-47.48948996 14.10272881 -43.16114553 8.74399143 -36 2 C-25.74071157 -5.88345321 -11.10504758 -6.99530556 0 0 Z M-31 1 C-32.010625 1.5775 -33.02125 2.155 -34.0625 2.75 C-41.81155942 8.68544977 -45.91749535 15.80907623 -47.3828125 25.54296875 C-47.78425092 33.95979426 -45.10073373 41.83234803 -39.8125 48.375 C-33.20019499 55.30014525 -25.75000842 58.07309725 -16.3125 58.3125 C-7.25643311 58.20138261 -0.34039994 55.19225399 6.2421875 48.99609375 C12.39606865 42.00801982 14.34666057 34.76492267 14.2109375 25.6171875 C13.48524966 16.61328278 9.03847678 9.92932876 2.6875 3.75 C-7.33743782 -2.77786648 -20.15398354 -5.46145661 -31 1 Z " fill="#B3F2B7" transform="translate(264,91)"/>
<path d="M0 0 C0.6875 2.3125 0.6875 2.3125 1 5 C-0.4375 6.8125 -0.4375 6.8125 -2 8 C-3.98 7.34 -5.96 6.68 -8 6 C-8 6.66 -8 7.32 -8 8 C-6.46322041 9.1769855 -6.46322041 9.1769855 -4.5625 10.3125 C-2.13205106 11.99853152 -1.1367222 12.70376857 0.125 15.4375 C-0.04616901 18.94646479 -1.10559219 21.06040167 -3 24 C-5.93001586 25.86968892 -8.17982462 26.25087279 -11.625 26.1875 C-12.40101563 26.18105469 -13.17703125 26.17460937 -13.9765625 26.16796875 C-16 26 -16 26 -18 25 C-18.125 19.25 -18.125 19.25 -17 17 C-16.4225 17.309375 -15.845 17.61875 -15.25 17.9375 C-13.15705816 18.92583364 -11.25464725 19.5168613 -9 20 C-9 19.01 -9 18.02 -9 17 C-9.969375 16.4225 -10.93875 15.845 -11.9375 15.25 C-15 13 -15 13 -16.125 9.5625 C-16 6 -16 6 -14.375 3.1875 C-9.58674149 -1.2227381 -6.30097748 -1.23548578 0 0 Z " fill="#FCFDFD" transform="translate(542,109)"/>
<path d="M0 0 C-0.78503906 0.35191406 -1.57007813 0.70382813 -2.37890625 1.06640625 C-12.83289136 5.9791379 -19.2370448 11.35223651 -24 22 C-26.30665249 29.97445674 -26.62990399 41.44018518 -23.375 49.125 C-22.28584802 51.13312687 -22.28584802 51.13312687 -21 53 C-20.56429687 53.69222656 -20.12859375 54.38445312 -19.6796875 55.09765625 C-14.31319488 62.94211951 -7.32986498 68.00923263 2 70 C5.66214841 70.48385899 9.31199431 70.80008941 13 71 C13 71.33 13 71.66 13 72 C1.39117628 72.65504334 -6.35278486 71.40143815 -15.3125 63.75 C-19.38954072 59.87137099 -22.32846249 55.92008159 -25 51 C-25.66 50.01 -26.32 49.02 -27 48 C-29.84604923 37.60732991 -28.92310528 25.52961214 -24 16 C-22.47719854 13.40896469 -20.95236287 11.31200867 -19 9 C-18.34 9 -17.68 9 -17 9 C-17 8.34 -17 7.68 -17 7 C-15.171875 5.5625 -15.171875 5.5625 -12.75 4 C-11.96109375 3.484375 -11.1721875 2.96875 -10.359375 2.4375 C-9.58078125 1.963125 -8.8021875 1.48875 -8 1 C-6.98679688 0.38125 -6.98679688 0.38125 -5.953125 -0.25 C-3.56459026 -1.16719734 -2.37069136 -0.84667549 0 0 Z " fill="#B1F0B5" transform="translate(238,84)"/>
<path d="M0 0 C5.04722576 2.06477417 7.50991243 4.11559747 10 9 C10.52898077 12.7028654 10.24044008 14.49726165 8.625 17.875 C8.08875 18.57625 7.5525 19.2775 7 20 C6.34 20 5.68 20 5 20 C4.67 18.68 4.34 17.36 4 16 C2.68 16.33 1.36 16.66 0 17 C-0.33 13.7 -0.66 10.4 -1 7 C-0.01 6.67 0.98 6.34 2 6 C1.34 4.02 0.68 2.04 0 0 Z " fill="#D3ECD4" transform="translate(250,115)"/>
<path d="M0 0 C0.66 0.33 1.32 0.66 2 1 C2 3.31 2 5.62 2 8 C2.99 8.33 3.98 8.66 5 9 C3.6875 11.5 3.6875 11.5 2 14 C1.01 14 0.02 14 -1 14 C-1 15.32 -1 16.64 -1 18 C-4.63 18 -8.26 18 -12 18 C-11.01 16.63875 -11.01 16.63875 -10 15.25 C-7.65060172 12.06824185 -7.65060172 12.06824185 -8 8 C-6.7934375 7.7834375 -6.7934375 7.7834375 -5.5625 7.5625 C-3.07896294 7.25864751 -3.07896294 7.25864751 -2 6 C-1.30899447 4.00827818 -0.64097297 2.00838196 0 0 Z " fill="#15991E" transform="translate(261,129)"/>
<path d="M0 0 C0.99 0 1.98 0 3 0 C3 1.32 3 2.64 3 4 C4.98 3.34 6.96 2.68 9 2 C8.67 3.98 8.34 5.96 8 8 C7.01 8.33 6.02 8.66 5 9 C4.67 10.98 4.34 12.96 4 15 C2.35 15 0.7 15 -1 15 C-1.20625 14.071875 -1.4125 13.14375 -1.625 12.1875 C-2.74446192 8.73995905 -2.74446192 8.73995905 -6.125 7.125 C-7.07375 6.75375 -8.0225 6.3825 -9 6 C-9 5.34 -9 4.68 -9 4 C-8.01 4 -7.02 4 -6 4 C-5.67 4.66 -5.34 5.32 -5 6 C-4.34 6 -3.68 6 -3 6 C-3 5.01 -3 4.02 -3 3 C-2.34 3 -1.68 3 -1 3 C-0.67 2.01 -0.34 1.02 0 0 Z " fill="#F5FBF4" transform="translate(247,128)"/>
<path d="M0 0 C1.29808594 -0.01417969 2.59617188 -0.02835937 3.93359375 -0.04296875 C7.31722799 0.17192298 9.54355663 0.71583782 12.5625 2.1875 C8.8125 4.1875 8.8125 4.1875 6.5625 4.1875 C6.913125 5.095 7.26375 6.0025 7.625 6.9375 C8.52718779 10.06508436 8.69631507 11.23958081 7.5625 14.1875 C5.125 13 5.125 13 2.5625 11.1875 C1.75 8.5 1.75 8.5 1.5625 6.1875 C0.2425 6.1875 -1.0775 6.1875 -2.4375 6.1875 C-2.7675 8.1675 -3.0975 10.1475 -3.4375 12.1875 C-3.7675 12.1875 -4.0975 12.1875 -4.4375 12.1875 C-4.7675 9.5475 -5.0975 6.9075 -5.4375 4.1875 C-1.9725 3.6925 -1.9725 3.6925 1.5625 3.1875 C1.5625 2.5275 1.5625 1.8675 1.5625 1.1875 C0.69238281 1.52974609 0.69238281 1.52974609 -0.1953125 1.87890625 C-5.01205796 3.65140499 -8.32224517 4.63026418 -13.4375 3.1875 C-9.64625651 -0.60374349 -5.16079479 0.02557381 0 0 Z " fill="#199722" transform="translate(247.4375,88.8125)"/>
<path d="M0 0 C2 3 2 3 1.75 5.125 C1 7 1 7 -1 8 C-1 7.34 -1 6.68 -1 6 C-2.65 6.33 -4.3 6.66 -6 7 C-5.7525 7.7425 -5.505 8.485 -5.25 9.25 C-5.12625 10.61125 -5.12625 10.61125 -5 12 C-6.9375 14.3125 -6.9375 14.3125 -9 16 C-6.69 16.33 -4.38 16.66 -2 17 C-5.45552638 19.30368425 -6.81019862 19.24325164 -10.875 19.1875 C-12.41800781 19.17783203 -12.41800781 19.17783203 -13.9921875 19.16796875 C-16.76239292 19.01326897 -19.30088817 18.62248889 -22 18 C-22 17.67 -22 17.34 -22 17 C-19.36 17 -16.72 17 -14 17 C-14.32484375 16.18595703 -14.32484375 16.18595703 -14.65625 15.35546875 C-14.9346875 14.64003906 -15.213125 13.92460937 -15.5 13.1875 C-15.7784375 12.47980469 -16.056875 11.77210938 -16.34375 11.04296875 C-17 9 -17 9 -17 6 C-16.01 6.33 -15.02 6.66 -14 7 C-13.67 8.65 -13.34 10.3 -13 12 C-11.35 12.33 -9.7 12.66 -8 13 C-8 11.02 -8 9.04 -8 7 C-7.05125 6.773125 -6.1025 6.54625 -5.125 6.3125 C-1.80676612 5.30916286 -1.80676612 5.30916286 -0.625 2.375 C-0.315625 1.199375 -0.315625 1.199375 0 0 Z " fill="#2C9935" transform="translate(259,130)"/>
<path d="M0 0 C0.99 0.33 1.98 0.66 3 1 C2.01 2.32 1.02 3.64 0 5 C0.99 5.66 1.98 6.32 3 7 C3.6875 10.125 3.6875 10.125 4 13 C3.34 13 2.68 13 2 13 C2 14.65 2 16.3 2 18 C-1.18462224 17.05322042 -2.73697662 16.33558155 -4.8125 13.6875 C-6.15753843 10.64346566 -6.71630977 9.26318897 -6 6 C-4.18494267 3.77984292 -2.16513611 1.87516253 0 0 Z " fill="#EEF9EE" transform="translate(242,101)"/>
<path d="M0 0 C16.41407829 -0.77853336 16.41407829 -0.77853336 24 4 C24.69609375 4.4125 25.3921875 4.825 26.109375 5.25 C32.41360655 9.42122087 36.65915539 15.41711319 38.78515625 22.68359375 C38.89150391 23.83021484 38.89150391 23.83021484 39 25 C38.34 25.66 37.68 26.32 37 27 C36.85304688 26.443125 36.70609375 25.88625 36.5546875 25.3125 C33.99457853 16.60224418 29.92118895 10.62466266 22.02734375 6.0078125 C16.20512746 3.11353157 11.3307085 2.63672519 4.86328125 2.34375 C2 2 2 2 0 0 Z " fill="#A7EAAA" transform="translate(240,87)"/>
<path d="M0 0 C1.70331934 1.28617991 3.39050729 2.59818376 5 4 C4.67 4.66 4.34 5.32 4 6 C2.35 5.01 0.7 4.02 -1 3 C-1 3.66 -1 4.32 -1 5 C-0.34 5.33 0.32 5.66 1 6 C1 6.99 1 7.98 1 9 C-1.64 7.02 -4.28 5.04 -7 3 C-6.34 2.67 -5.68 2.34 -5 2 C-4.01 2.33 -3.02 2.66 -2 3 C-2 2.01 -2 1.02 -2 0 C-3.3303125 -0.433125 -3.3303125 -0.433125 -4.6875 -0.875 C-8 -2 -8 -2 -10.0625 -3.03125 C-14.42583636 -4.47022263 -18.74471567 -4.47005043 -23.3125 -4.625 C-24.24384766 -4.66367188 -25.17519531 -4.70234375 -26.13476562 -4.7421875 C-28.42298407 -4.83606313 -30.71120295 -4.92174509 -33 -5 C-33 -5.33 -33 -5.66 -33 -6 C-20.85838044 -8.49058863 -10.39913049 -6.73831473 0 0 Z " fill="#499F52" transform="translate(270,88)"/>
<path d="M0 0 C0.5625 1.9375 0.5625 1.9375 1 4 C0.67 4.33 0.34 4.66 0 5 C-0.07148199 6.35243917 -0.08399454 7.70834367 -0.0625 9.0625 C-0.041875 10.361875 -0.02125 11.66125 0 13 C-0.99 13.495 -0.99 13.495 -2 14 C-2 12.68 -2 11.36 -2 10 C-4.475 9.01 -4.475 9.01 -7 8 C-7.33 5.69 -7.66 3.38 -8 1 C-5.29120665 -0.35439668 -2.99066732 -0.06501451 0 0 Z " fill="#139A1B" transform="translate(262,92)"/>
<path d="M0 0 C-0.99 0.495 -0.99 0.495 -2 1 C-2 1.66 -2 2.32 -2 3 C-1.44570313 2.77183594 -0.89140625 2.54367188 -0.3203125 2.30859375 C0.40414063 2.02113281 1.12859375 1.73367187 1.875 1.4375 C2.59429687 1.14746094 3.31359375 0.85742188 4.0546875 0.55859375 C6 0 6 0 8 1 C-0.22276375 6.45841582 -8.68324673 4.98408875 -18 4 C-18 3.67 -18 3.34 -18 3 C-16.02 2.67 -14.04 2.34 -12 2 C-12.66 1.34 -13.32 0.68 -14 0 C-4.58997722 -1.33257403 -4.58997722 -1.33257403 0 0 Z " fill="#349C3C" transform="translate(258,151)"/>
<path d="M0 0 C5.34143719 1.28931243 7.79071646 2.34136261 11 7 C12.25 10.3125 12.25 10.3125 13 13 C10.525 12.01 10.525 12.01 8 11 C8.33 12.65 8.66 14.3 9 16 C7.5 14 7.5 14 6 12 C5.1646875 11.01 5.1646875 11.01 4.3125 10 C3 8 3 8 3 4 C2.34 3.67 1.68 3.34 1 3 C0.67 2.01 0.34 1.02 0 0 Z " fill="#2A9230" transform="translate(269,91)"/>
<path d="M0 0 C0.66 0 1.32 0 2 0 C3.07645293 1.48198644 4.08570175 3.01301625 5.0625 4.5625 C10.56421312 12.60434153 17.33687891 18.04864275 27 20 C30.66251613 20.47978486 34.31209951 20.80009511 38 21 C38 21.33 38 21.66 38 22 C26.39117628 22.65504334 18.64721514 21.40143815 9.6875 13.75 C5.57991553 9.84294327 2.67227927 5.98825463 0 1 C0 0.67 0 0.34 0 0 Z " fill="#94DB9B" transform="translate(213,134)"/>
<path d="M0 0 C0.66 0.33 1.32 0.66 2 1 C2.1875 3.3125 2.1875 3.3125 2 6 C1.484375 6.495 0.96875 6.99 0.4375 7.5 C-0.036875 7.995 -0.51125 8.49 -1 9 C-0.76956136 11.65466049 -0.76956136 11.65466049 0 14 C-3.465 12.02 -3.465 12.02 -7 10 C-7 7.36 -7 4.72 -7 2 C-6.34 2 -5.68 2 -5 2 C-4.67 2.66 -4.34 3.32 -4 4 C-3.01 4 -2.02 4 -1 4 C-0.67 2.68 -0.34 1.36 0 0 Z " fill="#2C9C34" transform="translate(257,105)"/>
<path d="M0 0 C0.33 0 0.66 0 1 0 C4.6880393 8.98959581 2.75588839 17.73455321 1 27 C-0.37562854 25.71034824 -1.70766393 24.37310707 -3 23 C-3 22.34 -3 21.68 -3 21 C-2.01 20.67 -1.02 20.34 0 20 C0 13.4 0 6.8 0 0 Z " fill="#17951D" transform="translate(281,109)"/>
<path d="M0 0 C4.97306516 0.49730652 8.63799813 1.55302334 13 4 C13 4.99 13 5.98 13 7 C11.41532272 6.71572583 9.8322943 6.42225182 8.25 6.125 C7.36828125 5.96257812 6.4865625 5.80015625 5.578125 5.6328125 C3.13052256 5.03203736 1.19400143 4.22002883 -1 3 C-0.67 2.01 -0.34 1.02 0 0 Z " fill="#249A2F" transform="translate(255,84)"/>
<path d="M0 0 C1.32 0.33 2.64 0.66 4 1 C4 4.3 4 7.6 4 11 C1.48916886 9.74458443 1.12874554 8.49936512 0 6 C-0.99 6 -1.98 6 -3 6 C-3.33 7.98 -3.66 9.96 -4 12 C-4.33 12 -4.66 12 -5 12 C-5.33 9.36 -5.66 6.72 -6 4 C-4.02 3.67 -2.04 3.34 0 3 C0 2.01 0 1.02 0 0 Z " fill="#2B9732" transform="translate(240,118)"/>
<path d="M0 0 C0.66 0 1.32 0 2 0 C3.2039337 3.75399798 3.09877617 7.33217412 3.0625 11.25 C3.05347656 12.51328125 3.04445312 13.7765625 3.03515625 15.078125 C3.02355469 16.04234375 3.01195312 17.0065625 3 18 C2.01 18 1.02 18 0 18 C0 12.06 0 6.12 0 0 Z " fill="#1D9722" transform="translate(212,110)"/>
<path d="M0 0 C0.33 0.66 0.66 1.32 1 2 C-3.05387741 6.81397943 -6.0217942 7.88541926 -12 9 C-11.84765625 6.64453125 -11.84765625 6.64453125 -11 4 C-8.49609375 2.63671875 -8.49609375 2.63671875 -5.4375 1.6875 C-4.42558594 1.36136719 -3.41367187 1.03523437 -2.37109375 0.69921875 C-1.58863281 0.46847656 -0.80617188 0.23773438 0 0 Z " fill="#269A2D" transform="translate(268,145)"/>
<path d="M0 0 C0.33 0 0.66 0 1 0 C1 3.63 1 7.26 1 11 C-0.32 10.67 -1.64 10.34 -3 10 C-3.33 9.34 -3.66 8.68 -4 8 C-4.66 8 -5.32 8 -6 8 C-5.67 9.32 -5.34 10.64 -5 12 C-5.99 12 -6.98 12 -8 12 C-8 9.69 -8 7.38 -8 5 C-6.68 4.67 -5.36 4.34 -4 4 C-3.01 5.65 -2.02 7.3 -1 9 C-0.67 6.03 -0.34 3.06 0 0 Z " fill="#B7E1BA" transform="translate(244,119)"/>
<path d="M0 0 C2.34770643 3.52155964 2.37669614 5.50771843 2.625 9.6875 C2.69976562 10.86699219 2.77453125 12.04648438 2.8515625 13.26171875 C2.90054687 14.16535156 2.94953125 15.06898438 3 16 C1.68 16.33 0.36 16.66 -1 17 C-0.67 11.39 -0.34 5.78 0 0 Z " fill="#3EA445" transform="translate(279,113)"/>
<path d="M0 0 C0.33 0 0.66 0 1 0 C1.06058594 0.94101563 1.12117187 1.88203125 1.18359375 2.8515625 C1.26738281 4.09679687 1.35117188 5.34203125 1.4375 6.625 C1.55931641 8.46964844 1.55931641 8.46964844 1.68359375 10.3515625 C1.96663944 13.61532388 2.41038953 16.77943859 3 20 C0 18 0 18 -0.6796875 15.73046875 C-1.01184873 12.89899677 -1.13277817 10.16319767 -1.125 7.3125 C-1.12757813 6.35988281 -1.13015625 5.40726562 -1.1328125 4.42578125 C-1 2 -1 2 0 0 Z " fill="#A9E6AA" transform="translate(211,114)"/>
<path d="M0 0 C2.97 0 5.94 0 9 0 C10.24546405 2.49092811 9.7767578 3.41080733 9 6 C10.32 6 11.64 6 13 6 C13.33 7.32 13.66 8.64 14 10 C11.0625 8.8125 11.0625 8.8125 8 7 C7.125 4.3125 7.125 4.3125 7 2 C5.68 2 4.36 2 3 2 C2.67 3.98 2.34 5.96 2 8 C1.67 8 1.34 8 1 8 C0.67 5.36 0.34 2.72 0 0 Z " fill="#369C40" transform="translate(242,93)"/>
<path d="M0 0 C0.69738281 0.00451172 1.39476562 0.00902344 2.11328125 0.01367188 C3.82555803 0.0253998 5.53779033 0.04333347 7.25 0.0625 C7.25 0.3925 7.25 0.7225 7.25 1.0625 C6.33476562 1.19527344 5.41953125 1.32804687 4.4765625 1.46484375 C3.28804687 1.64144531 2.09953125 1.81804687 0.875 2 C-0.30835938 2.17402344 -1.49171875 2.34804687 -2.7109375 2.52734375 C-5.65702381 2.89712786 -5.65702381 2.89712786 -7.75 4.0625 C-9.75800456 3.78137936 -11.76014051 3.45182033 -13.75 3.0625 C-9.89613572 -0.79136428 -5.17421968 -0.06357737 0 0 Z " fill="#2C9835" transform="translate(247.75,88.9375)"/>
<path d="M0 0 C2 3 2 3 1.75 5.125 C1 7 1 7 -1 8 C-1 7.34 -1 6.68 -1 6 C-2.65 6.33 -4.3 6.66 -6 7 C-5.67 8.65 -5.34 10.3 -5 12 C-5.99 12 -6.98 12 -8 12 C-8 10.35 -8 8.7 -8 7 C-7.05125 6.773125 -6.1025 6.54625 -5.125 6.3125 C-1.80676612 5.30916286 -1.80676612 5.30916286 -0.625 2.375 C-0.41875 1.59125 -0.2125 0.8075 0 0 Z " fill="#359E3B" transform="translate(259,130)"/>
<path d="M0 0 C5.12583611 -0.10251672 9.94997778 -0.03590199 15 1 C11.99060247 2.73830497 9.84057335 3.251248 6.375 3.1875 C5.21097656 3.17783203 5.21097656 3.17783203 4.0234375 3.16796875 C2 3 2 3 0 2 C0 1.34 0 0.68 0 0 Z " fill="#1C9621" transform="translate(235,151)"/>
<path d="M0 0 C0.99 0.33 1.98 0.66 3 1 C2.57847656 1.44730469 2.15695313 1.89460938 1.72265625 2.35546875 C-2.5377979 6.98399766 -2.5377979 6.98399766 -4 13 C-6 11 -6 11 -6.5 8.75 C-5.75144611 4.63295363 -3.07828233 2.66601237 0 0 Z " fill="#D2F1D1" transform="translate(242,101)"/>
<path d="M0 0 C3.65898271 3.36230844 6.24260537 6.31361431 8 11 C7.6875 13.875 7.6875 13.875 7 16 C6.67 16 6.34 16 6 16 C5.81824219 15.40832031 5.63648438 14.81664063 5.44921875 14.20703125 C4.03429011 9.75907609 2.52019642 5.96030865 0 2 C0 1.34 0 0.68 0 0 Z " fill="#ADEEB2" transform="translate(271,98)"/>
<path d="M0 0 C0.66 0 1.32 0 2 0 C1.125 6.75 1.125 6.75 0 9 C-0.66 9 -1.32 9 -2 9 C-2.6875 6.75 -2.6875 6.75 -3 4 C-1.6875 1.6875 -1.6875 1.6875 0 0 Z " fill="#229825" transform="translate(218,98)"/>
<path d="M0 0 C2.38564077 0.57584432 4.66682784 1.22227595 7 2 C7 3.65 7 5.3 7 7 C6.01 7.495 6.01 7.495 5 8 C4.34 7.67 3.68 7.34 3 7 C3 6.01 3 5.02 3 4 C2.34 3.67 1.68 3.34 1 3 C0.67 2.01 0.34 1.02 0 0 Z " fill="#179721" transform="translate(269,91)"/>
<path d="M0 0 C0.33 1.32 0.66 2.64 1 4 C2.32 3.67 3.64 3.34 5 3 C2.6875 5.5 2.6875 5.5 0 8 C-0.99 8 -1.98 8 -3 8 C-2.34 6.68 -1.68 5.36 -1 4 C-2.32 4.33 -3.64 4.66 -5 5 C-3.35 3.35 -1.7 1.7 0 0 Z " fill="#3A9843" transform="translate(269,142)"/>
<path d="M0 0 C-1.55500981 3.81684226 -4.03595495 6.19195732 -7 9 C-7 7.68 -7 6.36 -7 5 C-7.66 4.67 -8.32 4.34 -9 4 C-8.34 3.67 -7.68 3.34 -7 3 C-6.34 3.33 -5.68 3.66 -5 4 C-4.67 3.01 -4.34 2.02 -4 1 C-2 0 -2 0 0 0 Z " fill="#319E3B" transform="translate(227,93)"/>
<path d="M0 0 C0.99 0 1.98 0 3 0 C3.66 2.97 4.32 5.94 5 9 C2.5 7.875 2.5 7.875 0 6 C-0.3125 2.8125 -0.3125 2.8125 0 0 Z " fill="#209825" transform="translate(215,130)"/>
<path d="M0 0 C0.66 0 1.32 0 2 0 C2.185625 0.9590625 2.185625 0.9590625 2.375 1.9375 C2.684375 2.9584375 2.684375 2.9584375 3 4 C3.66 4.33 4.32 4.66 5 5 C5 3.35 5 1.7 5 0 C5.99 0.33 6.98 0.66 8 1 C7.67 2.98 7.34 4.96 7 7 C5.35 7 3.7 7 2 7 C1.34 4.69 0.68 2.38 0 0 Z " fill="#DCFBDB" transform="translate(244,136)"/>
<path d="M0 0 C0.66 0.66 1.32 1.32 2 2 C1.67 2.33 1.34 2.66 1 3 C-0.85772162 2.91015699 -2.71247985 2.75388139 -4.5625 2.5625 C-6.08037109 2.40974609 -6.08037109 2.40974609 -7.62890625 2.25390625 C-8.41136719 2.17011719 -9.19382813 2.08632812 -10 2 C-6.32653229 -0.44897847 -4.33643601 -0.31537716 0 0 Z " fill="#17951F" transform="translate(252,83)"/>
<path d="M0 0 C1.32 0.33 2.64 0.66 4 1 C4.33 3.64 4.66 6.28 5 9 C1.7457985 6.16569547 0.4793247 4.31392226 0 0 Z " fill="#2F9B36" transform="translate(219,128)"/>
<path d="M0 0 C0.33 0 0.66 0 1 0 C1.33 4.62 1.66 9.24 2 14 C1.34 14 0.68 14 0 14 C-0.33 15.32 -0.66 16.64 -1 18 C-1.38218767 16.34385343 -1.71395102 14.67542976 -2 13 C-1.67 12.67 -1.34 12.34 -1 12 C-0.76572222 9.98405418 -0.58663876 7.961526 -0.4375 5.9375 C-0.35371094 4.83277344 -0.26992187 3.72804688 -0.18359375 2.58984375 C-0.12300781 1.73519531 -0.06242188 0.88054687 0 0 Z " fill="#41A948" transform="translate(215,116)"/>
<path d="M0 0 C0.99 0.33 1.98 0.66 3 1 C1.71283353 2.00578589 0.42011342 3.00446798 -0.875 4 C-1.95394531 4.8353125 -1.95394531 4.8353125 -3.0546875 5.6875 C-5 7 -5 7 -7 7 C-7 6.01 -7 5.02 -7 4 C-5.02 3.67 -3.04 3.34 -1 3 C-0.67 2.01 -0.34 1.02 0 0 Z " fill="#2F9734" transform="translate(267,139)"/>
<path d="M0 0 C1.32 0 2.64 0 4 0 C4.33 1.65 4.66 3.3 5 5 C3.02 5 1.04 5 -1 5 C-0.67 3.35 -0.34 1.7 0 0 Z " fill="#149A1B" transform="translate(240,142)"/>
<path d="M0 0 C0.66 0.99 1.32 1.98 2 3 C1 5 1 5 -0.875 5.75 C-3 6 -3 6 -6 4 C-4.02 2.68 -2.04 1.36 0 0 Z " fill="#25992E" transform="translate(233,92)"/>
<path d="M0 0 C0.33 0.66 0.66 1.32 1 2 C0.01 3.32 -0.98 4.64 -2 6 C-3.65 5.67 -5.3 5.34 -7 5 C-6.01 4.67 -5.02 4.34 -4 4 C-4 3.34 -4 2.68 -4 2 C-2.68 1.34 -1.36 0.68 0 0 Z " fill="#159821" transform="translate(268,145)"/>
<path d="M0 0 C0.99 0.33 1.98 0.66 3 1 C1.515 3.475 1.515 3.475 0 6 C-0.99 5.67 -1.98 5.34 -3 5 C-1.125 1.125 -1.125 1.125 0 0 Z " fill="#0F9D16" transform="translate(263,137)"/>
<path d="M0 0 C1.98 0.99 1.98 0.99 4 2 C4 3.32 4 4.64 4 6 C2.68 6 1.36 6 0 6 C0 4.02 0 2.04 0 0 Z " fill="#CCE4CE" transform="translate(241,106)"/>
<path d="M0 0 C2.97 0.495 2.97 0.495 6 1 C6 1.99 6 2.98 6 4 C3.03 3.505 3.03 3.505 0 3 C0 2.01 0 1.02 0 0 Z " fill="#19981F" transform="translate(262,87)"/>
<path d="M0 0 C0.66 0.33 1.32 0.66 2 1 C2 1.66 2 2.32 2 3 C1.01 3.33 0.02 3.66 -1 4 C-1.73323796 6.01508358 -1.73323796 6.01508358 -2 8 C-2.99 8 -3.98 8 -5 8 C-3.8141763 4.62496331 -2.72426311 2.35277269 0 0 Z " fill="#309B3B" transform="translate(226,97)"/>
<path d="M0 0 C3.36720387 1.39332574 4.9859524 2.9789286 7 6 C6.01 6.495 6.01 6.495 5 7 C3.29115995 5.37660195 1.62553283 3.70680947 0 2 C0 1.34 0 0.68 0 0 Z " fill="#299931" transform="translate(264,94)"/>
<path d="M0 0 C2.00720923 0.28674418 4.0085944 0.61866701 6 1 C6 1.66 6 2.32 6 3 C4.35 3.66 2.7 4.32 1 5 C1 4.01 1 3.02 1 2 C0.34 1.67 -0.32 1.34 -1 1 C-0.67 0.67 -0.34 0.34 0 0 Z " fill="#2E9E35" transform="translate(229,87)"/>
<path d="M0 0 C1.94268841 2.91403262 3.46395304 5.85808576 5 9 C4.34 9 3.68 9 3 9 C3 8.34 3 7.68 3 7 C2.01 7.33 1.02 7.66 0 8 C0 5.36 0 2.72 0 0 Z " fill="#319939" transform="translate(235,109)"/>
<path d="M0 0 C0.66 0 1.32 0 2 0 C2.33 0.66 2.66 1.32 3 2 C3.99 2.66 4.98 3.32 6 4 C5.38125 4.103125 4.7625 4.20625 4.125 4.3125 C1.63473516 4.87525373 1.63473516 4.87525373 0 8 C0 5.36 0 2.72 0 0 Z " fill="#5EAF62" transform="translate(250,107)"/>
</svg>
